<?xml version="1.0" encoding="UTF-8" standalone="no"?>
<!DOCTYPE svg PUBLIC "-//W3C//DTD SVG 1.1//EN" "http://www.w3.org/Graphics/SVG/1.1/DTD/svg11.dtd">
<svg xmlns="http://www.w3.org/2000/svg" version="1.1" viewBox="0 0 1448 1448">
<g stroke-width="2.00" fill="none" stroke-linecap="butt">
<path stroke="#97a88e" vector-effect="non-scaling-stroke" d="
  M 1003.00 655.28
  C 988.58 647.85 972.73 643.69 957.65 637.66
  Q 936.72 629.28 914.78 624.07
  C 909.80 622.88 905.64 620.21 900.44 619.27
  C 891.20 617.60 881.36 614.48 873.10 612.94
  Q 839.36 606.63 805.28 602.47
  C 798.00 601.58 789.17 601.18 781.09 600.23
  Q 778.33 599.91 779.45 602.46
  C 782.15 608.57 783.32 615.84 786.12 622.41
  Q 790.91 633.65 794.75 645.25
  C 799.86 660.69 809.42 679.21 816.58 695.32
  C 819.99 703.01 823.79 709.46 827.76 716.43
  C 831.11 722.31 835.05 730.37 839.16 737.11
  C 850.01 754.90 859.47 773.33 871.40 790.45
  C 879.66 802.30 884.38 809.22 890.89 818.59
  C 895.11 824.66 903.51 835.73 909.09 844.83
  A 0.70 0.70 -39.8 0 0 910.21 844.93
  C 918.71 835.62 927.74 828.08 935.27 817.81
  C 941.25 809.65 947.62 803.00 953.29 793.56
  C 955.76 789.45 958.39 785.89 961.04 782.01
  Q 963.68 778.12 966.25 773.02
  C 973.64 758.34 983.99 739.57 988.50 721.50
  C 989.28 718.38 990.74 715.29 991.40 713.13
  Q 999.67 686.00 1004.09 657.42
  A 2.06 2.05 18.1 0 0 1003.00 655.28"
/>
<path stroke="#56471b" vector-effect="non-scaling-stroke" d="
  M 606.01 608.29
  Q 600.72 607.52 595.58 608.75
  Q 590.13 610.06 589.97 610.09
  C 570.87 613.72 547.31 619.19 528.81 625.57
  Q 525.43 626.73 518.50 628.50
  C 510.70 630.49 503.17 634.05 495.29 636.74
  C 489.26 638.81 483.86 641.68 477.76 643.49
  Q 472.69 645.00 467.77 646.93
  C 463.86 648.46 456.69 650.53 451.58 653.70
  A 2.48 2.47 77.7 0 0 450.44 655.48
  Q 449.67 661.59 451.09 666.37
  C 451.91 669.15 451.84 671.47 452.45 674.15
  Q 453.23 677.61 453.56 679.95
  C 454.18 684.29 455.86 688.70 456.67 692.38
  Q 457.90 697.97 459.36 703.49
  Q 460.10 706.32 462.06 711.19
  Q 463.89 715.71 466.14 725.51
  Q 466.23 725.90 466.61 726.34
  Q 467.25 727.08 467.50 728.50
  Q 468.42 733.80 471.83 739.32"
/>
<path stroke="#97a88e" vector-effect="non-scaling-stroke" d="
  M 471.83 739.32
  C 482.29 764.14 496.77 790.70 512.94 810.56
  Q 530.48 832.11 542.41 844.88
  A 0.44 0.44 -46.6 0 0 543.07 844.86
  Q 550.99 835.14 559.05 825.52
  C 562.17 821.81 564.18 817.26 567.19 813.18
  C 572.40 806.11 577.22 798.01 583.04 791.50"
/>
<path stroke="#60511c" vector-effect="non-scaling-stroke" d="
  M 583.04 791.50
  Q 584.44 790.77 584.46 789.25"
/>
<path stroke="#97a88e" vector-effect="non-scaling-stroke" d="
  M 584.46 789.25
  Q 589.39 782.41 594.69 773.44
  C 599.34 765.56 605.20 756.88 609.80 748.68
  Q 621.97 727.04 634.04 705.36
  Q 640.01 694.65 640.69 692.19
  Q 642.22 686.62 645.69 680.44
  C 648.97 674.58 651.69 667.29 654.32 660.80
  C 662.08 641.64 669.80 622.13 675.87 602.36
  A 0.87 0.86 -81.9 0 0 675.03 601.24
  Q 663.73 601.37 652.95 602.26
  C 638.44 603.45 621.65 606.44 606.01 608.29"
/>
<path stroke="#97a88e" vector-effect="non-scaling-stroke" d="
  M 584.46 789.25
  Q 583.25 790.06 583.04 791.50"
/>
<path stroke="#8d9e8c" vector-effect="non-scaling-stroke" d="
  M 471.83 739.32
  C 467.79 726.54 463.12 713.47 459.97 700.87
  C 458.45 694.76 456.52 689.11 455.50 683.50
  Q 453.14 670.47 450.46 657.32
  A 1.56 1.55 -24.4 0 1 451.04 655.78
  Q 453.63 653.78 456.35 652.71
  C 466.91 648.56 478.27 645.31 488.26 641.16
  C 507.10 633.33 517.81 630.41 536.75 624.50
  Q 555.08 618.79 579.54 613.94
  Q 592.76 611.32 606.01 608.29"
/>
</g>
<g fill="#ceffff">
<path d="
  M 1003.00 655.28
  A 2.06 2.05 18.1 0 1 1004.09 657.42
  Q 999.67 686.00 991.40 713.13
  C 990.74 715.29 989.28 718.38 988.50 721.50
  C 983.99 739.57 973.64 758.34 966.25 773.02
  Q 963.68 778.12 961.04 782.01
  C 958.39 785.89 955.76 789.45 953.29 793.56
  C 947.62 803.00 941.25 809.65 935.27 817.81
  C 927.74 828.08 918.71 835.62 910.21 844.93
  A 0.70 0.70 -39.8 0 1 909.09 844.83
  C 903.51 835.73 895.11 824.66 890.89 818.59
  C 884.38 809.22 879.66 802.30 871.40 790.45
  C 859.47 773.33 850.01 754.90 839.16 737.11
  C 835.05 730.37 831.11 722.31 827.76 716.43
  C 823.79 709.46 819.99 703.01 816.58 695.32
  C 809.42 679.21 799.86 660.69 794.75 645.25
  Q 790.91 633.65 786.12 622.41
  C 783.32 615.84 782.15 608.57 779.45 602.46
  Q 778.33 599.91 781.09 600.23
  C 789.17 601.18 798.00 601.58 805.28 602.47
  Q 839.36 606.63 873.10 612.94
  C 881.36 614.48 891.20 617.60 900.44 619.27
  C 905.64 620.21 909.80 622.88 914.78 624.07
  Q 936.72 629.28 957.65 637.66
  C 972.73 643.69 988.58 647.85 1003.00 655.28
  Z"
/>
<path d="
  M 584.46 789.25
  Q 583.25 790.06 583.04 791.50
  C 577.22 798.01 572.40 806.11 567.19 813.18
  C 564.18 817.26 562.17 821.81 559.05 825.52
  Q 550.99 835.14 543.07 844.86
  A 0.44 0.44 -46.6 0 1 542.41 844.88
  Q 530.48 832.11 512.94 810.56
  C 496.77 790.70 482.29 764.14 471.83 739.32
  C 467.79 726.54 463.12 713.47 459.97 700.87
  C 458.45 694.76 456.52 689.11 455.50 683.50
  Q 453.14 670.47 450.46 657.32
  A 1.56 1.55 -24.4 0 1 451.04 655.78
  Q 453.63 653.78 456.35 652.71
  C 466.91 648.56 478.27 645.31 488.26 641.16
  C 507.10 633.33 517.81 630.41 536.75 624.50
  Q 555.08 618.79 579.54 613.94
  Q 592.76 611.32 606.01 608.29
  C 621.65 606.44 638.44 603.45 652.95 602.26
  Q 663.73 601.37 675.03 601.24
  A 0.87 0.86 -81.9 0 1 675.87 602.36
  C 669.80 622.13 662.08 641.64 654.32 660.80
  C 651.69 667.29 648.97 674.58 645.69 680.44
  Q 642.22 686.62 640.69 692.19
  Q 640.01 694.65 634.04 705.36
  Q 621.97 727.04 609.80 748.68
  C 605.20 756.88 599.34 765.56 594.69 773.44
  Q 589.39 782.41 584.46 789.25
  Z"
/>
</g>
<path fill="#4c1948" d="
  M 606.01 608.29
  Q 592.76 611.32 579.54 613.94
  Q 555.08 618.79 536.75 624.50
  C 517.81 630.41 507.10 633.33 488.26 641.16
  C 478.27 645.31 466.91 648.56 456.35 652.71
  Q 453.63 653.78 451.04 655.78
  A 1.56 1.55 -24.4 0 0 450.46 657.32
  Q 453.14 670.47 455.50 683.50
  C 456.52 689.11 458.45 694.76 459.97 700.87
  C 463.12 713.47 467.79 726.54 471.83 739.32
  Q 468.42 733.80 467.50 728.50
  Q 467.25 727.08 466.61 726.34
  Q 466.23 725.90 466.14 725.51
  Q 463.89 715.71 462.06 711.19
  Q 460.10 706.32 459.36 703.49
  Q 457.90 697.97 456.67 692.38
  C 455.86 688.70 454.18 684.29 453.56 679.95
  Q 453.23 677.61 452.45 674.15
  C 451.84 671.47 451.91 669.15 451.09 666.37
  Q 449.67 661.59 450.44 655.48
  A 2.48 2.47 77.7 0 1 451.58 653.70
  C 456.69 650.53 463.86 648.46 467.77 646.93
  Q 472.69 645.00 477.76 643.49
  C 483.86 641.68 489.26 638.81 495.29 636.74
  C 503.17 634.05 510.70 630.49 518.50 628.50
  Q 525.43 626.73 528.81 625.57
  C 547.31 619.19 570.87 613.72 589.97 610.09
  Q 590.13 610.06 595.58 608.75
  Q 600.72 607.52 606.01 608.29
  Z"
/>
<g fill="#b51655">
<path d="
  M 327.94 742.56
  C 322.91 737.37 318.86 732.22 315.01 727.76
  C 303.09 713.96 295.30 701.89 285.69 688.56
  C 285.08 687.72 284.65 686.34 283.86 685.33
  Q 278.18 677.96 274.08 669.63
  C 268.33 657.95 262.31 646.42 256.56 634.74
  Q 253.75 629.03 251.89 622.87
  C 245.73 602.48 241.75 588.27 237.92 568.71
  C 235.54 556.53 235.46 543.85 234.96 531.57
  Q 234.94 531.12 234.68 530.63
  C 233.62 528.60 234.32 527.62 236.38 526.98
  Q 278.64 513.89 301.75 508.00
  C 317.50 503.98 339.75 500.87 358.41 499.99
  C 368.29 499.53 376.59 498.76 386.75 498.00
  C 410.25 496.25 432.30 498.87 455.10 499.92
  Q 462.02 500.24 470.37 500.88
  C 479.09 501.54 487.47 501.64 496.55 503.28
  Q 505.26 504.86 514.01 506.21
  C 531.22 508.87 548.12 513.17 564.98 517.32
  Q 600.53 526.08 634.82 538.93
  C 642.63 541.86 651.39 543.79 658.50 545.69
  Q 673.94 549.83 682.19 552.56
  C 684.63 553.37 688.67 554.67 689.40 551.01
  Q 689.74 549.30 688.43 548.14
  Q 672.95 534.58 654.64 523.14
  C 641.51 514.95 630.51 507.49 615.39 500.13
  C 602.82 494.01 591.45 486.03 578.41 479.26
  Q 564.29 471.93 550.61 463.82
  C 549.78 463.33 550.43 463.20 550.85 463.38
  C 560.01 467.31 570.06 470.80 578.49 474.61
  C 585.19 477.64 591.36 480.72 598.48 483.17
  Q 610.37 487.26 619.94 491.56
  C 638.27 499.80 657.02 506.62 671.94 515.56
  Q 679.58 520.14 692.81 529.94
  C 697.10 533.11 706.45 528.22 710.31 525.56
  C 714.52 522.67 723.36 519.47 729.08 520.63
  C 738.51 522.54 747.36 523.84 753.32 533.02
  A 1.06 1.05 57.8 0 0 754.75 533.35
  Q 758.61 531.01 762.25 528.47
  Q 791.67 507.97 825.17 495.15
  Q 832.73 492.25 840.25 489.26
  C 847.47 486.39 861.24 481.74 870.81 476.81
  Q 883.10 470.48 901.32 459.85
  C 901.54 459.73 902.81 459.51 901.79 460.29
  C 894.58 465.75 886.93 470.52 879.79 476.09
  C 871.00 482.94 860.18 487.40 850.40 493.22
  C 834.65 502.59 815.28 511.23 802.69 519.19
  C 792.81 525.43 780.86 533.64 771.93 542.57
  C 767.26 547.24 764.33 549.71 762.90 554.71
  Q 762.61 555.72 763.61 555.38
  C 775.16 551.44 786.72 547.70 798.35 544.79
  C 810.55 541.73 822.52 537.15 832.31 533.80
  C 863.96 522.99 896.64 514.71 929.36 507.90
  Q 932.76 507.19 938.21 506.65
  C 944.01 506.06 951.46 504.45 955.43 503.80
  C 961.06 502.88 964.59 502.81 969.05 501.85
  Q 971.67 501.28 973.53 501.30
  C 980.24 501.38 988.90 500.48 993.44 500.23
  Q 1015.98 498.99 1038.50 497.25
  Q 1049.44 496.40 1064.25 497.53
  C 1078.32 498.60 1092.37 499.82 1106.46 500.76
  Q 1115.40 501.36 1125.00 503.00
  C 1138.40 505.29 1150.47 507.06 1162.52 510.72
  C 1177.55 515.28 1192.77 519.13 1207.79 523.87
  Q 1211.97 525.19 1216.52 527.33
  A 2.21 2.20 -78.5 0 1 1217.77 529.22
  C 1218.82 550.24 1215.07 572.30 1209.75 592.25
  Q 1207.61 600.25 1207.10 602.42
  C 1200.02 632.41 1184.49 661.11 1168.89 686.34
  C 1155.54 707.94 1138.95 728.96 1122.19 746.44
  Q 1112.97 756.05 1111.18 757.94
  C 1104.41 765.11 1096.24 771.76 1089.80 777.90
  Q 1082.51 784.86 1079.69 786.94
  Q 1063.16 799.12 1048.81 813.82
  A 0.83 0.83 56.3 0 0 1048.63 814.72
  Q 1051.43 821.48 1054.50 827.78
  Q 1064.21 847.72 1068.73 869.45
  C 1074.05 895.06 1067.58 924.13 1051.60 944.88
  C 1046.51 951.48 1039.46 957.34 1032.94 963.19
  C 1023.37 971.77 1005.45 981.53 993.19 986.19
  Q 978.03 991.95 967.94 993.19
  C 958.24 994.38 948.97 996.93 939.18 997.55
  C 933.29 997.93 927.47 998.89 921.51 999.16
  C 917.42 999.34 913.06 1000.67 908.57 1000.58
  A 1.56 1.36 -59.5 0 0 907.67 1000.88
  Q 905.89 1002.20 903.41 1001.73
  Q 900.62 1001.21 897.92 1002.11
  C 894.72 1003.17 890.73 1002.96 887.57 1003.07
  Q 870.20 1003.68 852.85 1004.50
  C 833.62 1005.42 815.56 1006.23 796.65 1005.99
  A 0.87 0.85 -5.9 0 1 795.82 1005.33
  Q 794.94 1001.48 796.25 997.48
  A 1.84 1.75 -43.6 0 0 796.30 996.48
  C 795.42 992.55 795.56 989.12 795.45 985.18
  C 794.98 967.21 794.26 949.97 793.87 931.25
  C 793.53 914.78 792.93 898.08 790.27 881.80
  A 0.48 0.47 -10.9 0 0 789.69 881.42
  Q 773.65 884.83 759.49 893.06
  A 0.89 0.86 75.3 0 0 759.06 893.82
  C 759.09 903.14 758.68 912.54 759.06 921.72
  Q 759.88 941.53 759.99 961.36
  C 760.00 962.80 760.58 964.40 760.60 965.89
  C 760.63 967.28 759.50 968.60 760.48 970.33
  A 1.75 0.83 48.3 0 1 760.75 971.25
  L 760.32 977.51
  Q 760.28 978.05 760.46 978.45
  Q 761.70 981.25 760.89 983.82
  Q 760.67 984.51 760.68 985.33
  L 761.06 1011.07
  A 0.37 0.36 -0.8 0 1 760.69 1011.44
  Q 727.03 1011.37 693.37 1011.25
  C 689.84 1011.24 689.48 1012.58 689.50 1008.03
  Q 689.55 999.59 690.25 982.00
  Q 692.02 937.25 693.78 891.82
  A 1.27 1.27 -86.4 0 0 692.63 890.51
  C 683.60 889.68 667.22 886.62 660.37 879.99
  Q 659.20 878.85 659.25 880.48
  Q 659.45 886.60 659.12 892.69
  C 657.95 914.07 657.81 935.46 655.79 956.80
  C 655.21 962.97 655.05 969.30 654.71 975.51
  Q 653.86 990.87 653.76 1005.55
  A 1.37 1.37 -4.2 0 1 652.60 1006.89
  C 647.83 1007.67 643.93 1006.55 640.34 1006.34
  C 620.48 1005.17 600.58 1004.80 580.76 1003.73
  Q 555.80 1002.37 549.25 1001.50
  C 527.62 998.62 506.35 996.93 484.30 992.71
  Q 473.37 990.62 465.04 987.53
  C 439.10 977.92 410.29 960.47 396.03 935.85
  C 384.18 915.39 379.82 888.57 386.28 865.26
  C 389.43 853.88 392.71 842.72 397.65 832.04
  Q 401.98 822.67 406.81 813.67
  A 0.92 0.92 -59.7 0 0 406.49 812.45
  Q 395.28 805.46 386.31 796.44
  Q 382.16 792.28 377.25 789.04
  C 372.85 786.13 369.21 782.64 365.34 779.13
  Q 348.77 764.09 327.94 742.56
  Z
  M 1003.00 655.28
  C 988.58 647.85 972.73 643.69 957.65 637.66
  Q 936.72 629.28 914.78 624.07
  C 909.80 622.88 905.64 620.21 900.44 619.27
  C 891.20 617.60 881.36 614.48 873.10 612.94
  Q 839.36 606.63 805.28 602.47
  C 798.00 601.58 789.17 601.18 781.09 600.23
  Q 778.33 599.91 779.45 602.46
  C 782.15 608.57 783.32 615.84 786.12 622.41
  Q 790.91 633.65 794.75 645.25
  C 799.86 660.69 809.42 679.21 816.58 695.32
  C 819.99 703.01 823.79 709.46 827.76 716.43
  C 831.11 722.31 835.05 730.37 839.16 737.11
  C 850.01 754.90 859.47 773.33 871.40 790.45
  C 879.66 802.30 884.38 809.22 890.89 818.59
  C 895.11 824.66 903.51 835.73 909.09 844.83
  A 0.70 0.70 -39.8 0 0 910.21 844.93
  C 918.71 835.62 927.74 828.08 935.27 817.81
  C 941.25 809.65 947.62 803.00 953.29 793.56
  C 955.76 789.45 958.39 785.89 961.04 782.01
  Q 963.68 778.12 966.25 773.02
  C 973.64 758.34 983.99 739.57 988.50 721.50
  C 989.28 718.38 990.74 715.29 991.40 713.13
  Q 999.67 686.00 1004.09 657.42
  A 2.06 2.05 18.1 0 0 1003.00 655.28
  Z
  M 606.01 608.29
  Q 600.72 607.52 595.58 608.75
  Q 590.13 610.06 589.97 610.09
  C 570.87 613.72 547.31 619.19 528.81 625.57
  Q 525.43 626.73 518.50 628.50
  C 510.70 630.49 503.17 634.05 495.29 636.74
  C 489.26 638.81 483.86 641.68 477.76 643.49
  Q 472.69 645.00 467.77 646.93
  C 463.86 648.46 456.69 650.53 451.58 653.70
  A 2.48 2.47 77.7 0 0 450.44 655.48
  Q 449.67 661.59 451.09 666.37
  C 451.91 669.15 451.84 671.47 452.45 674.15
  Q 453.23 677.61 453.56 679.95
  C 454.18 684.29 455.86 688.70 456.67 692.38
  Q 457.90 697.97 459.36 703.49
  Q 460.10 706.32 462.06 711.19
  Q 463.89 715.71 466.14 725.51
  Q 466.23 725.90 466.61 726.34
  Q 467.25 727.08 467.50 728.50
  Q 468.42 733.80 471.83 739.32
  C 482.29 764.14 496.77 790.70 512.94 810.56
  Q 530.48 832.11 542.41 844.88
  A 0.44 0.44 -46.6 0 0 543.07 844.86
  Q 550.99 835.14 559.05 825.52
  C 562.17 821.81 564.18 817.26 567.19 813.18
  C 572.40 806.11 577.22 798.01 583.04 791.50
  Q 584.44 790.77 584.46 789.25
  Q 589.39 782.41 594.69 773.44
  C 599.34 765.56 605.20 756.88 609.80 748.68
  Q 621.97 727.04 634.04 705.36
  Q 640.01 694.65 640.69 692.19
  Q 642.22 686.62 645.69 680.44
  C 648.97 674.58 651.69 667.29 654.32 660.80
  C 662.08 641.64 669.80 622.13 675.87 602.36
  A 0.87 0.86 -81.9 0 0 675.03 601.24
  Q 663.73 601.37 652.95 602.26
  C 638.44 603.45 621.65 606.44 606.01 608.29
  Z"
/>
<path d="
  M 584.46 789.25
  Q 584.44 790.77 583.04 791.50
  Q 583.25 790.06 584.46 789.25
  Z"
/>
</g>
</svg>
